name rise30.8019peak61.5557fall86.2505.mot
datacolumns 19
datarows 12
range 6.55497800000000 6.57330900000000
endheader
time	ground_force1_vx	ground_force1_vy	ground_force1_vz	ground_force1_px	ground_force1_py	ground_force1_pz	ground_force2_vx	ground_force2_vy	ground_force2_vz	ground_force2_px	ground_force2_py	ground_force2_pz	ground_torque1_x	ground_torque1_y	ground_torque1_z	ground_torque2_x	ground_torque2_y	ground_torque2_z	
6.55497800000000	-3.24157700000000	677.52440000000001	34.04833600000000	0.11948000000000	0.00000000000000	0.10999700000000	0.00000000000000	0.00000000000000	0.00000000000000	0.00000000000000	0.00000000000000	0.00000000000000	0.00000000000000	10.47058600000000	0.00000000000000	0.00000000000000	0.00000000000000	0.00000000000000	
6.55664100000000	-3.77510100000000	678.63807699999995	34.06861600000000	0.11849900000000	0.00000000000000	0.11000000000000	0.00000000000000	0.00000000000000	0.00000000000000	0.00000000000000	0.00000000000000	0.00000000000000	0.00000000000000	10.58684900000000	0.00000000000000	0.00000000000000	0.00000000000000	0.00000000000000	
6.55831500000000	-4.31608800000000	679.76867100000004	34.09076300000000	0.11752200000000	0.00000000000000	0.11000400000000	0.00000000000000	0.00000000000000	0.00000000000000	0.00000000000000	0.00000000000000	0.00000000000000	0.00000000000000	10.70578700000000	0.00000000000000	0.00000000000000	0.00000000000000	0.00000000000000	
6.55998000000000	-4.86435100000000	680.91570899999999	34.11481300000000	0.11654900000000	0.00000000000000	0.11000700000000	0.00000000000000	0.00000000000000	0.00000000000000	0.00000000000000	0.00000000000000	0.00000000000000	0.00000000000000	10.82733300000000	0.00000000000000	0.00000000000000	0.00000000000000	0.00000000000000	
6.56164100000000	-5.41969200000000	682.07880699999998	34.14081100000000	0.11558000000000	0.00000000000000	0.11001000000000	0.00000000000000	0.00000000000000	0.00000000000000	0.00000000000000	0.00000000000000	0.00000000000000	0.00000000000000	10.95141900000000	0.00000000000000	0.00000000000000	0.00000000000000	0.00000000000000	
6.56331400000000	-5.98190400000000	683.25767099999996	34.16880500000000	0.11461600000000	0.00000000000000	0.11001300000000	0.00000000000000	0.00000000000000	0.00000000000000	0.00000000000000	0.00000000000000	0.00000000000000	0.00000000000000	11.07796900000000	0.00000000000000	0.00000000000000	0.00000000000000	0.00000000000000	
6.56497800000000	-6.55076700000000	684.45209199999999	34.19885000000000	0.11365500000000	0.00000000000000	0.11001600000000	0.00000000000000	0.00000000000000	0.00000000000000	0.00000000000000	0.00000000000000	0.00000000000000	0.00000000000000	11.20690400000000	0.00000000000000	0.00000000000000	0.00000000000000	0.00000000000000	
6.56664600000000	-7.12605500000000	685.66194599999994	34.23100700000000	0.11269800000000	0.00000000000000	0.11001900000000	0.00000000000000	0.00000000000000	0.00000000000000	0.00000000000000	0.00000000000000	0.00000000000000	0.00000000000000	11.33814200000000	0.00000000000000	0.00000000000000	0.00000000000000	0.00000000000000	
6.56830800000000	-7.70752900000000	686.88718700000004	34.26534200000000	0.11174500000000	0.00000000000000	0.11002200000000	0.00000000000000	0.00000000000000	0.00000000000000	0.00000000000000	0.00000000000000	0.00000000000000	0.00000000000000	11.47159400000000	0.00000000000000	0.00000000000000	0.00000000000000	0.00000000000000	
6.56998200000000	-8.29494400000000	688.12784999999997	34.30192600000000	0.11079500000000	0.00000000000000	0.11002500000000	0.00000000000000	0.00000000000000	0.00000000000000	0.00000000000000	0.00000000000000	0.00000000000000	0.00000000000000	11.60716600000000	0.00000000000000	0.00000000000000	0.00000000000000	0.00000000000000	
6.57165200000000	-8.88804300000000	689.38403800000003	34.34083200000000	0.10984800000000	0.00000000000000	0.11002700000000	0.00000000000000	0.00000000000000	0.00000000000000	0.00000000000000	0.00000000000000	0.00000000000000	0.00000000000000	11.74476200000000	0.00000000000000	0.00000000000000	0.00000000000000	0.00000000000000	
6.57330900000000	-9.48656300000000	690.65592300000003	34.38214200000000	0.10890300000000	0.00000000000000	0.11003000000000	0.00000000000000	0.00000000000000	0.00000000000000	0.00000000000000	0.00000000000000	0.00000000000000	0.00000000000000	11.88427800000000	0.00000000000000	0.00000000000000	0.00000000000000	0.00000000000000	
